<mxfile host="app.diagrams.net" modified="2023-08-04T21:16:30.144Z" agent="Mozilla/5.0 (Windows NT 10.0; Win64; x64) AppleWebKit/537.36 (KHTML, like Gecko) Chrome/115.0.0.0 Safari/537.36" etag="i9kQpg1nFz31VybFHXKf" version="21.6.6" type="device">
  <diagram name="Page-1" id="wfGJKl3lStCZsuAB7YQr">
    <mxGraphModel dx="2501" dy="750" grid="1" gridSize="10" guides="1" tooltips="1" connect="1" arrows="1" fold="1" page="1" pageScale="1" pageWidth="827" pageHeight="1169" math="0" shadow="0">
      <root>
        <mxCell id="0" />
        <mxCell id="1" parent="0" />
        <mxCell id="5XVgzPO-QSHydqZ4kXn2-1" style="edgeStyle=orthogonalEdgeStyle;rounded=0;orthogonalLoop=1;jettySize=auto;html=1;entryX=0;entryY=0.21;entryDx=0;entryDy=0;entryPerimeter=0;" edge="1" parent="1" source="5XVgzPO-QSHydqZ4kXn2-9" target="5XVgzPO-QSHydqZ4kXn2-13">
          <mxGeometry relative="1" as="geometry" />
        </mxCell>
        <mxCell id="5XVgzPO-QSHydqZ4kXn2-2" style="edgeStyle=orthogonalEdgeStyle;rounded=0;orthogonalLoop=1;jettySize=auto;html=1;" edge="1" parent="1" source="5XVgzPO-QSHydqZ4kXn2-9" target="5XVgzPO-QSHydqZ4kXn2-16">
          <mxGeometry relative="1" as="geometry" />
        </mxCell>
        <mxCell id="5XVgzPO-QSHydqZ4kXn2-3" style="edgeStyle=orthogonalEdgeStyle;rounded=0;orthogonalLoop=1;jettySize=auto;html=1;entryX=0;entryY=0.8;entryDx=0;entryDy=0;entryPerimeter=0;" edge="1" parent="1" source="5XVgzPO-QSHydqZ4kXn2-9" target="5XVgzPO-QSHydqZ4kXn2-30">
          <mxGeometry relative="1" as="geometry">
            <mxPoint x="-210" y="700" as="targetPoint" />
          </mxGeometry>
        </mxCell>
        <mxCell id="5XVgzPO-QSHydqZ4kXn2-4" style="edgeStyle=orthogonalEdgeStyle;rounded=0;orthogonalLoop=1;jettySize=auto;html=1;entryX=0;entryY=0.21;entryDx=0;entryDy=0;entryPerimeter=0;" edge="1" parent="1" source="5XVgzPO-QSHydqZ4kXn2-9" target="5XVgzPO-QSHydqZ4kXn2-19">
          <mxGeometry relative="1" as="geometry" />
        </mxCell>
        <mxCell id="5XVgzPO-QSHydqZ4kXn2-5" style="edgeStyle=orthogonalEdgeStyle;rounded=0;orthogonalLoop=1;jettySize=auto;html=1;entryX=0;entryY=0.21;entryDx=0;entryDy=0;entryPerimeter=0;" edge="1" parent="1" source="5XVgzPO-QSHydqZ4kXn2-9" target="5XVgzPO-QSHydqZ4kXn2-22">
          <mxGeometry relative="1" as="geometry" />
        </mxCell>
        <mxCell id="5XVgzPO-QSHydqZ4kXn2-6" style="edgeStyle=orthogonalEdgeStyle;rounded=0;orthogonalLoop=1;jettySize=auto;html=1;entryX=0;entryY=0.21;entryDx=0;entryDy=0;entryPerimeter=0;" edge="1" parent="1" source="5XVgzPO-QSHydqZ4kXn2-9" target="5XVgzPO-QSHydqZ4kXn2-53">
          <mxGeometry relative="1" as="geometry" />
        </mxCell>
        <mxCell id="5XVgzPO-QSHydqZ4kXn2-7" style="edgeStyle=orthogonalEdgeStyle;rounded=0;orthogonalLoop=1;jettySize=auto;html=1;entryX=0;entryY=0.21;entryDx=0;entryDy=0;entryPerimeter=0;" edge="1" parent="1" source="5XVgzPO-QSHydqZ4kXn2-9" target="5XVgzPO-QSHydqZ4kXn2-25">
          <mxGeometry relative="1" as="geometry" />
        </mxCell>
        <mxCell id="5XVgzPO-QSHydqZ4kXn2-8" style="edgeStyle=orthogonalEdgeStyle;rounded=0;orthogonalLoop=1;jettySize=auto;html=1;entryX=0;entryY=0.21;entryDx=0;entryDy=0;entryPerimeter=0;" edge="1" parent="1" source="5XVgzPO-QSHydqZ4kXn2-9" target="5XVgzPO-QSHydqZ4kXn2-56">
          <mxGeometry relative="1" as="geometry" />
        </mxCell>
        <mxCell id="5XVgzPO-QSHydqZ4kXn2-9" value="" style="sketch=0;outlineConnect=0;fontColor=#232F3E;gradientColor=none;fillColor=#232F3D;strokeColor=none;dashed=0;verticalLabelPosition=bottom;verticalAlign=top;align=center;html=1;fontSize=12;fontStyle=0;aspect=fixed;pointerEvents=1;shape=mxgraph.aws4.user;" vertex="1" parent="1">
          <mxGeometry x="-310" y="370" width="78" height="78" as="geometry" />
        </mxCell>
        <mxCell id="5XVgzPO-QSHydqZ4kXn2-10" value="AWS Cloud - Harshil" style="points=[[0,0],[0.25,0],[0.5,0],[0.75,0],[1,0],[1,0.25],[1,0.5],[1,0.75],[1,1],[0.75,1],[0.5,1],[0.25,1],[0,1],[0,0.75],[0,0.5],[0,0.25]];outlineConnect=0;gradientColor=none;html=1;whiteSpace=wrap;fontSize=12;fontStyle=0;container=1;pointerEvents=0;collapsible=0;recursiveResize=0;shape=mxgraph.aws4.group;grIcon=mxgraph.aws4.group_aws_cloud_alt;strokeColor=#232F3E;fillColor=none;verticalAlign=top;align=left;spacingLeft=30;fontColor=#232F3E;dashed=0;" vertex="1" parent="1">
          <mxGeometry x="-60" y="170" width="1220" height="1340" as="geometry" />
        </mxCell>
        <mxCell id="5XVgzPO-QSHydqZ4kXn2-11" style="edgeStyle=orthogonalEdgeStyle;rounded=0;orthogonalLoop=1;jettySize=auto;html=1;" edge="1" parent="5XVgzPO-QSHydqZ4kXn2-10" source="5XVgzPO-QSHydqZ4kXn2-13" target="5XVgzPO-QSHydqZ4kXn2-32">
          <mxGeometry relative="1" as="geometry" />
        </mxCell>
        <mxCell id="5XVgzPO-QSHydqZ4kXn2-12" value="POST" style="edgeLabel;html=1;align=center;verticalAlign=middle;resizable=0;points=[];" vertex="1" connectable="0" parent="5XVgzPO-QSHydqZ4kXn2-11">
          <mxGeometry x="-0.2605" y="3" relative="1" as="geometry">
            <mxPoint x="11" y="3" as="offset" />
          </mxGeometry>
        </mxCell>
        <mxCell id="5XVgzPO-QSHydqZ4kXn2-13" value="check_security_question_dynamo" style="outlineConnect=0;dashed=0;verticalLabelPosition=bottom;verticalAlign=top;align=center;html=1;shape=mxgraph.aws3.api_gateway;fillColor=#D9A741;gradientColor=none;" vertex="1" parent="5XVgzPO-QSHydqZ4kXn2-10">
          <mxGeometry x="130" y="110" width="76.5" height="93" as="geometry" />
        </mxCell>
        <mxCell id="5XVgzPO-QSHydqZ4kXn2-14" style="edgeStyle=orthogonalEdgeStyle;rounded=0;orthogonalLoop=1;jettySize=auto;html=1;" edge="1" parent="5XVgzPO-QSHydqZ4kXn2-10" source="5XVgzPO-QSHydqZ4kXn2-16" target="5XVgzPO-QSHydqZ4kXn2-34">
          <mxGeometry relative="1" as="geometry" />
        </mxCell>
        <mxCell id="5XVgzPO-QSHydqZ4kXn2-15" value="POST" style="edgeLabel;html=1;align=center;verticalAlign=middle;resizable=0;points=[];" vertex="1" connectable="0" parent="5XVgzPO-QSHydqZ4kXn2-14">
          <mxGeometry x="-0.0139" y="1" relative="1" as="geometry">
            <mxPoint as="offset" />
          </mxGeometry>
        </mxCell>
        <mxCell id="5XVgzPO-QSHydqZ4kXn2-16" value="fetchQuesFirstNameLastNameByUserID" style="outlineConnect=0;dashed=0;verticalLabelPosition=bottom;verticalAlign=top;align=center;html=1;shape=mxgraph.aws3.api_gateway;fillColor=#D9A741;gradientColor=none;" vertex="1" parent="5XVgzPO-QSHydqZ4kXn2-10">
          <mxGeometry x="130" y="260" width="76.5" height="93" as="geometry" />
        </mxCell>
        <mxCell id="5XVgzPO-QSHydqZ4kXn2-17" style="edgeStyle=orthogonalEdgeStyle;rounded=0;orthogonalLoop=1;jettySize=auto;html=1;entryX=0;entryY=0.5;entryDx=0;entryDy=0;entryPerimeter=0;" edge="1" parent="5XVgzPO-QSHydqZ4kXn2-10" source="5XVgzPO-QSHydqZ4kXn2-19" target="5XVgzPO-QSHydqZ4kXn2-40">
          <mxGeometry relative="1" as="geometry" />
        </mxCell>
        <mxCell id="5XVgzPO-QSHydqZ4kXn2-18" value="GET" style="edgeLabel;html=1;align=center;verticalAlign=middle;resizable=0;points=[];" vertex="1" connectable="0" parent="5XVgzPO-QSHydqZ4kXn2-17">
          <mxGeometry x="-0.3452" y="2" relative="1" as="geometry">
            <mxPoint as="offset" />
          </mxGeometry>
        </mxCell>
        <mxCell id="5XVgzPO-QSHydqZ4kXn2-19" value="getAllUsers" style="outlineConnect=0;dashed=0;verticalLabelPosition=bottom;verticalAlign=top;align=center;html=1;shape=mxgraph.aws3.api_gateway;fillColor=#D9A741;gradientColor=none;" vertex="1" parent="5XVgzPO-QSHydqZ4kXn2-10">
          <mxGeometry x="120" y="560" width="76.5" height="93" as="geometry" />
        </mxCell>
        <mxCell id="5XVgzPO-QSHydqZ4kXn2-20" style="edgeStyle=orthogonalEdgeStyle;rounded=0;orthogonalLoop=1;jettySize=auto;html=1;" edge="1" parent="5XVgzPO-QSHydqZ4kXn2-10" source="5XVgzPO-QSHydqZ4kXn2-22" target="5XVgzPO-QSHydqZ4kXn2-42">
          <mxGeometry relative="1" as="geometry" />
        </mxCell>
        <mxCell id="5XVgzPO-QSHydqZ4kXn2-21" value="GET" style="edgeLabel;html=1;align=center;verticalAlign=middle;resizable=0;points=[];" vertex="1" connectable="0" parent="5XVgzPO-QSHydqZ4kXn2-20">
          <mxGeometry x="-0.3871" relative="1" as="geometry">
            <mxPoint as="offset" />
          </mxGeometry>
        </mxCell>
        <mxCell id="5XVgzPO-QSHydqZ4kXn2-22" value="getQuestionsFromDynamo" style="outlineConnect=0;dashed=0;verticalLabelPosition=bottom;verticalAlign=top;align=center;html=1;shape=mxgraph.aws3.api_gateway;fillColor=#D9A741;gradientColor=none;" vertex="1" parent="5XVgzPO-QSHydqZ4kXn2-10">
          <mxGeometry x="120" y="700" width="76.5" height="93" as="geometry" />
        </mxCell>
        <mxCell id="5XVgzPO-QSHydqZ4kXn2-23" style="edgeStyle=orthogonalEdgeStyle;rounded=0;orthogonalLoop=1;jettySize=auto;html=1;" edge="1" parent="5XVgzPO-QSHydqZ4kXn2-10" source="5XVgzPO-QSHydqZ4kXn2-25" target="5XVgzPO-QSHydqZ4kXn2-46">
          <mxGeometry relative="1" as="geometry" />
        </mxCell>
        <mxCell id="5XVgzPO-QSHydqZ4kXn2-24" value="PUT" style="edgeLabel;html=1;align=center;verticalAlign=middle;resizable=0;points=[];" vertex="1" connectable="0" parent="5XVgzPO-QSHydqZ4kXn2-23">
          <mxGeometry x="-0.1214" y="2" relative="1" as="geometry">
            <mxPoint as="offset" />
          </mxGeometry>
        </mxCell>
        <mxCell id="5XVgzPO-QSHydqZ4kXn2-25" value="storeUserToDynamoDB" style="outlineConnect=0;dashed=0;verticalLabelPosition=bottom;verticalAlign=top;align=center;html=1;shape=mxgraph.aws3.api_gateway;fillColor=#D9A741;gradientColor=none;" vertex="1" parent="5XVgzPO-QSHydqZ4kXn2-10">
          <mxGeometry x="110" y="999" width="76.5" height="93" as="geometry" />
        </mxCell>
        <mxCell id="5XVgzPO-QSHydqZ4kXn2-26" style="edgeStyle=orthogonalEdgeStyle;rounded=0;orthogonalLoop=1;jettySize=auto;html=1;" edge="1" parent="5XVgzPO-QSHydqZ4kXn2-10" source="5XVgzPO-QSHydqZ4kXn2-30" target="5XVgzPO-QSHydqZ4kXn2-36">
          <mxGeometry relative="1" as="geometry" />
        </mxCell>
        <mxCell id="5XVgzPO-QSHydqZ4kXn2-27" value="GET" style="edgeLabel;html=1;align=center;verticalAlign=middle;resizable=0;points=[];" vertex="1" connectable="0" parent="5XVgzPO-QSHydqZ4kXn2-26">
          <mxGeometry x="-0.1373" y="3" relative="1" as="geometry">
            <mxPoint x="98" y="-43" as="offset" />
          </mxGeometry>
        </mxCell>
        <mxCell id="5XVgzPO-QSHydqZ4kXn2-28" style="edgeStyle=orthogonalEdgeStyle;rounded=0;orthogonalLoop=1;jettySize=auto;html=1;" edge="1" parent="5XVgzPO-QSHydqZ4kXn2-10" source="5XVgzPO-QSHydqZ4kXn2-30" target="5XVgzPO-QSHydqZ4kXn2-38">
          <mxGeometry relative="1" as="geometry" />
        </mxCell>
        <mxCell id="5XVgzPO-QSHydqZ4kXn2-29" value="POST" style="edgeLabel;html=1;align=center;verticalAlign=middle;resizable=0;points=[];" vertex="1" connectable="0" parent="5XVgzPO-QSHydqZ4kXn2-28">
          <mxGeometry x="0.4682" relative="1" as="geometry">
            <mxPoint x="-1" as="offset" />
          </mxGeometry>
        </mxCell>
        <mxCell id="5XVgzPO-QSHydqZ4kXn2-30" value="gameCompletionUserDetailsUpdate" style="outlineConnect=0;dashed=0;verticalLabelPosition=bottom;verticalAlign=top;align=center;html=1;shape=mxgraph.aws3.api_gateway;fillColor=#D9A741;gradientColor=none;" vertex="1" parent="5XVgzPO-QSHydqZ4kXn2-10">
          <mxGeometry x="120" y="414.5" width="76.5" height="93" as="geometry" />
        </mxCell>
        <mxCell id="5XVgzPO-QSHydqZ4kXn2-31" style="edgeStyle=orthogonalEdgeStyle;rounded=0;orthogonalLoop=1;jettySize=auto;html=1;" edge="1" parent="5XVgzPO-QSHydqZ4kXn2-10" source="5XVgzPO-QSHydqZ4kXn2-32" target="5XVgzPO-QSHydqZ4kXn2-49">
          <mxGeometry relative="1" as="geometry" />
        </mxCell>
        <mxCell id="5XVgzPO-QSHydqZ4kXn2-32" value="CheckSecurityQuestions" style="sketch=0;points=[[0,0,0],[0.25,0,0],[0.5,0,0],[0.75,0,0],[1,0,0],[0,1,0],[0.25,1,0],[0.5,1,0],[0.75,1,0],[1,1,0],[0,0.25,0],[0,0.5,0],[0,0.75,0],[1,0.25,0],[1,0.5,0],[1,0.75,0]];outlineConnect=0;fontColor=#232F3E;gradientColor=#F78E04;gradientDirection=north;fillColor=#D05C17;strokeColor=#ffffff;dashed=0;verticalLabelPosition=bottom;verticalAlign=top;align=center;html=1;fontSize=12;fontStyle=0;aspect=fixed;shape=mxgraph.aws4.resourceIcon;resIcon=mxgraph.aws4.lambda;" vertex="1" parent="5XVgzPO-QSHydqZ4kXn2-10">
          <mxGeometry x="650" y="117.5" width="78" height="78" as="geometry" />
        </mxCell>
        <mxCell id="5XVgzPO-QSHydqZ4kXn2-33" style="edgeStyle=orthogonalEdgeStyle;rounded=0;orthogonalLoop=1;jettySize=auto;html=1;" edge="1" parent="5XVgzPO-QSHydqZ4kXn2-10" source="5XVgzPO-QSHydqZ4kXn2-34" target="5XVgzPO-QSHydqZ4kXn2-49">
          <mxGeometry relative="1" as="geometry">
            <Array as="points">
              <mxPoint x="1010" y="280" />
              <mxPoint x="1010" y="280" />
            </Array>
          </mxGeometry>
        </mxCell>
        <mxCell id="5XVgzPO-QSHydqZ4kXn2-34" value="fetchQuesFirstNameLastNameByUserID" style="sketch=0;points=[[0,0,0],[0.25,0,0],[0.5,0,0],[0.75,0,0],[1,0,0],[0,1,0],[0.25,1,0],[0.5,1,0],[0.75,1,0],[1,1,0],[0,0.25,0],[0,0.5,0],[0,0.75,0],[1,0.25,0],[1,0.5,0],[1,0.75,0]];outlineConnect=0;fontColor=#232F3E;gradientColor=#F78E04;gradientDirection=north;fillColor=#D05C17;strokeColor=#ffffff;dashed=0;verticalLabelPosition=bottom;verticalAlign=top;align=center;html=1;fontSize=12;fontStyle=0;aspect=fixed;shape=mxgraph.aws4.resourceIcon;resIcon=mxgraph.aws4.lambda;" vertex="1" parent="5XVgzPO-QSHydqZ4kXn2-10">
          <mxGeometry x="640" y="267.5" width="78" height="78" as="geometry" />
        </mxCell>
        <mxCell id="5XVgzPO-QSHydqZ4kXn2-35" style="edgeStyle=orthogonalEdgeStyle;rounded=0;orthogonalLoop=1;jettySize=auto;html=1;" edge="1" parent="5XVgzPO-QSHydqZ4kXn2-10">
          <mxGeometry relative="1" as="geometry">
            <mxPoint x="718" y="425" as="sourcePoint" />
            <mxPoint x="1070" y="300" as="targetPoint" />
            <Array as="points">
              <mxPoint x="894" y="425" />
              <mxPoint x="894" y="300" />
            </Array>
          </mxGeometry>
        </mxCell>
        <mxCell id="5XVgzPO-QSHydqZ4kXn2-36" value="getGameDetailsByUserID" style="sketch=0;points=[[0,0,0],[0.25,0,0],[0.5,0,0],[0.75,0,0],[1,0,0],[0,1,0],[0.25,1,0],[0.5,1,0],[0.75,1,0],[1,1,0],[0,0.25,0],[0,0.5,0],[0,0.75,0],[1,0.25,0],[1,0.5,0],[1,0.75,0]];outlineConnect=0;fontColor=#232F3E;gradientColor=#F78E04;gradientDirection=north;fillColor=#D05C17;strokeColor=#ffffff;dashed=0;verticalLabelPosition=bottom;verticalAlign=top;align=center;html=1;fontSize=12;fontStyle=0;aspect=fixed;shape=mxgraph.aws4.resourceIcon;resIcon=mxgraph.aws4.lambda;" vertex="1" parent="5XVgzPO-QSHydqZ4kXn2-10">
          <mxGeometry x="640" y="376" width="78" height="78" as="geometry" />
        </mxCell>
        <mxCell id="5XVgzPO-QSHydqZ4kXn2-37" style="edgeStyle=orthogonalEdgeStyle;rounded=0;orthogonalLoop=1;jettySize=auto;html=1;exitX=1;exitY=0.5;exitDx=0;exitDy=0;exitPerimeter=0;" edge="1" parent="5XVgzPO-QSHydqZ4kXn2-10" source="5XVgzPO-QSHydqZ4kXn2-38" target="5XVgzPO-QSHydqZ4kXn2-49">
          <mxGeometry relative="1" as="geometry" />
        </mxCell>
        <mxCell id="5XVgzPO-QSHydqZ4kXn2-38" value="gameCompletionUserDetailsUpdate" style="sketch=0;points=[[0,0,0],[0.25,0,0],[0.5,0,0],[0.75,0,0],[1,0,0],[0,1,0],[0.25,1,0],[0.5,1,0],[0.75,1,0],[1,1,0],[0,0.25,0],[0,0.5,0],[0,0.75,0],[1,0.25,0],[1,0.5,0],[1,0.75,0]];outlineConnect=0;fontColor=#232F3E;gradientColor=#F78E04;gradientDirection=north;fillColor=#D05C17;strokeColor=#ffffff;dashed=0;verticalLabelPosition=bottom;verticalAlign=top;align=center;html=1;fontSize=12;fontStyle=0;aspect=fixed;shape=mxgraph.aws4.resourceIcon;resIcon=mxgraph.aws4.lambda;" vertex="1" parent="5XVgzPO-QSHydqZ4kXn2-10">
          <mxGeometry x="640" y="500" width="78" height="78" as="geometry" />
        </mxCell>
        <mxCell id="5XVgzPO-QSHydqZ4kXn2-39" style="edgeStyle=orthogonalEdgeStyle;rounded=0;orthogonalLoop=1;jettySize=auto;html=1;exitX=1;exitY=0.5;exitDx=0;exitDy=0;exitPerimeter=0;" edge="1" parent="5XVgzPO-QSHydqZ4kXn2-10" source="5XVgzPO-QSHydqZ4kXn2-40" target="5XVgzPO-QSHydqZ4kXn2-49">
          <mxGeometry relative="1" as="geometry" />
        </mxCell>
        <mxCell id="5XVgzPO-QSHydqZ4kXn2-40" value="getAllUsersSDP" style="sketch=0;points=[[0,0,0],[0.25,0,0],[0.5,0,0],[0.75,0,0],[1,0,0],[0,1,0],[0.25,1,0],[0.5,1,0],[0.75,1,0],[1,1,0],[0,0.25,0],[0,0.5,0],[0,0.75,0],[1,0.25,0],[1,0.5,0],[1,0.75,0]];outlineConnect=0;fontColor=#232F3E;gradientColor=#F78E04;gradientDirection=north;fillColor=#D05C17;strokeColor=#ffffff;dashed=0;verticalLabelPosition=bottom;verticalAlign=top;align=center;html=1;fontSize=12;fontStyle=0;aspect=fixed;shape=mxgraph.aws4.resourceIcon;resIcon=mxgraph.aws4.lambda;" vertex="1" parent="5XVgzPO-QSHydqZ4kXn2-10">
          <mxGeometry x="640" y="622" width="78" height="78" as="geometry" />
        </mxCell>
        <mxCell id="5XVgzPO-QSHydqZ4kXn2-41" style="edgeStyle=orthogonalEdgeStyle;rounded=0;orthogonalLoop=1;jettySize=auto;html=1;" edge="1" parent="5XVgzPO-QSHydqZ4kXn2-10" source="5XVgzPO-QSHydqZ4kXn2-42" target="5XVgzPO-QSHydqZ4kXn2-50">
          <mxGeometry relative="1" as="geometry" />
        </mxCell>
        <mxCell id="5XVgzPO-QSHydqZ4kXn2-42" value="getQuestionsFromDynamo" style="sketch=0;points=[[0,0,0],[0.25,0,0],[0.5,0,0],[0.75,0,0],[1,0,0],[0,1,0],[0.25,1,0],[0.5,1,0],[0.75,1,0],[1,1,0],[0,0.25,0],[0,0.5,0],[0,0.75,0],[1,0.25,0],[1,0.5,0],[1,0.75,0]];outlineConnect=0;fontColor=#232F3E;gradientColor=#F78E04;gradientDirection=north;fillColor=#D05C17;strokeColor=#ffffff;dashed=0;verticalLabelPosition=bottom;verticalAlign=top;align=center;html=1;fontSize=12;fontStyle=0;aspect=fixed;shape=mxgraph.aws4.resourceIcon;resIcon=mxgraph.aws4.lambda;" vertex="1" parent="5XVgzPO-QSHydqZ4kXn2-10">
          <mxGeometry x="630" y="740" width="78" height="78" as="geometry" />
        </mxCell>
        <mxCell id="5XVgzPO-QSHydqZ4kXn2-43" style="edgeStyle=orthogonalEdgeStyle;rounded=0;orthogonalLoop=1;jettySize=auto;html=1;" edge="1" parent="5XVgzPO-QSHydqZ4kXn2-10" source="5XVgzPO-QSHydqZ4kXn2-44" target="5XVgzPO-QSHydqZ4kXn2-49">
          <mxGeometry relative="1" as="geometry" />
        </mxCell>
        <mxCell id="5XVgzPO-QSHydqZ4kXn2-44" value="increaseGamesPlayed" style="sketch=0;points=[[0,0,0],[0.25,0,0],[0.5,0,0],[0.75,0,0],[1,0,0],[0,1,0],[0.25,1,0],[0.5,1,0],[0.75,1,0],[1,1,0],[0,0.25,0],[0,0.5,0],[0,0.75,0],[1,0.25,0],[1,0.5,0],[1,0.75,0]];outlineConnect=0;fontColor=#232F3E;gradientColor=#F78E04;gradientDirection=north;fillColor=#D05C17;strokeColor=#ffffff;dashed=0;verticalLabelPosition=bottom;verticalAlign=top;align=center;html=1;fontSize=12;fontStyle=0;aspect=fixed;shape=mxgraph.aws4.resourceIcon;resIcon=mxgraph.aws4.lambda;" vertex="1" parent="5XVgzPO-QSHydqZ4kXn2-10">
          <mxGeometry x="620" y="860" width="78" height="78" as="geometry" />
        </mxCell>
        <mxCell id="5XVgzPO-QSHydqZ4kXn2-45" style="edgeStyle=orthogonalEdgeStyle;rounded=0;orthogonalLoop=1;jettySize=auto;html=1;" edge="1" parent="5XVgzPO-QSHydqZ4kXn2-10" source="5XVgzPO-QSHydqZ4kXn2-46" target="5XVgzPO-QSHydqZ4kXn2-49">
          <mxGeometry relative="1" as="geometry" />
        </mxCell>
        <mxCell id="5XVgzPO-QSHydqZ4kXn2-46" value="storeUserToDynamoDB" style="sketch=0;points=[[0,0,0],[0.25,0,0],[0.5,0,0],[0.75,0,0],[1,0,0],[0,1,0],[0.25,1,0],[0.5,1,0],[0.75,1,0],[1,1,0],[0,0.25,0],[0,0.5,0],[0,0.75,0],[1,0.25,0],[1,0.5,0],[1,0.75,0]];outlineConnect=0;fontColor=#232F3E;gradientColor=#F78E04;gradientDirection=north;fillColor=#D05C17;strokeColor=#ffffff;dashed=0;verticalLabelPosition=bottom;verticalAlign=top;align=center;html=1;fontSize=12;fontStyle=0;aspect=fixed;shape=mxgraph.aws4.resourceIcon;resIcon=mxgraph.aws4.lambda;" vertex="1" parent="5XVgzPO-QSHydqZ4kXn2-10">
          <mxGeometry x="620" y="1006.5" width="78" height="78" as="geometry" />
        </mxCell>
        <mxCell id="5XVgzPO-QSHydqZ4kXn2-47" style="edgeStyle=orthogonalEdgeStyle;rounded=0;orthogonalLoop=1;jettySize=auto;html=1;" edge="1" parent="5XVgzPO-QSHydqZ4kXn2-10" source="5XVgzPO-QSHydqZ4kXn2-48" target="5XVgzPO-QSHydqZ4kXn2-49">
          <mxGeometry relative="1" as="geometry" />
        </mxCell>
        <mxCell id="5XVgzPO-QSHydqZ4kXn2-48" value="UpdateUserDetails" style="sketch=0;points=[[0,0,0],[0.25,0,0],[0.5,0,0],[0.75,0,0],[1,0,0],[0,1,0],[0.25,1,0],[0.5,1,0],[0.75,1,0],[1,1,0],[0,0.25,0],[0,0.5,0],[0,0.75,0],[1,0.25,0],[1,0.5,0],[1,0.75,0]];outlineConnect=0;fontColor=#232F3E;gradientColor=#F78E04;gradientDirection=north;fillColor=#D05C17;strokeColor=#ffffff;dashed=0;verticalLabelPosition=bottom;verticalAlign=top;align=center;html=1;fontSize=12;fontStyle=0;aspect=fixed;shape=mxgraph.aws4.resourceIcon;resIcon=mxgraph.aws4.lambda;" vertex="1" parent="5XVgzPO-QSHydqZ4kXn2-10">
          <mxGeometry x="620" y="1160" width="78" height="78" as="geometry" />
        </mxCell>
        <mxCell id="5XVgzPO-QSHydqZ4kXn2-49" value="Amazon DynamoDB&lt;br&gt;&lt;span style=&quot;font-weight: normal;&quot;&gt;Users&lt;/span&gt;" style="sketch=0;outlineConnect=0;fontColor=#232F3E;gradientColor=none;strokeColor=#ffffff;fillColor=#232F3E;dashed=0;verticalLabelPosition=middle;verticalAlign=bottom;align=center;html=1;whiteSpace=wrap;fontSize=10;fontStyle=1;spacing=3;shape=mxgraph.aws4.productIcon;prIcon=mxgraph.aws4.dynamodb;" vertex="1" parent="5XVgzPO-QSHydqZ4kXn2-10">
          <mxGeometry x="1070" y="251.5" width="80" height="128.5" as="geometry" />
        </mxCell>
        <mxCell id="5XVgzPO-QSHydqZ4kXn2-50" value="Amazon DynamoDB&lt;br&gt;&lt;span style=&quot;font-weight: normal;&quot;&gt;sdpQuestions&lt;/span&gt;" style="sketch=0;outlineConnect=0;fontColor=#232F3E;gradientColor=none;strokeColor=#ffffff;fillColor=#232F3E;dashed=0;verticalLabelPosition=middle;verticalAlign=bottom;align=center;html=1;whiteSpace=wrap;fontSize=10;fontStyle=1;spacing=3;shape=mxgraph.aws4.productIcon;prIcon=mxgraph.aws4.dynamodb;" vertex="1" parent="5XVgzPO-QSHydqZ4kXn2-10">
          <mxGeometry x="970" y="719" width="80" height="120" as="geometry" />
        </mxCell>
        <mxCell id="5XVgzPO-QSHydqZ4kXn2-51" style="edgeStyle=orthogonalEdgeStyle;rounded=0;orthogonalLoop=1;jettySize=auto;html=1;" edge="1" parent="1" source="5XVgzPO-QSHydqZ4kXn2-53" target="5XVgzPO-QSHydqZ4kXn2-44">
          <mxGeometry relative="1" as="geometry" />
        </mxCell>
        <mxCell id="5XVgzPO-QSHydqZ4kXn2-52" value="POST" style="edgeLabel;html=1;align=center;verticalAlign=middle;resizable=0;points=[];" vertex="1" connectable="0" parent="5XVgzPO-QSHydqZ4kXn2-51">
          <mxGeometry x="-0.2453" y="1" relative="1" as="geometry">
            <mxPoint as="offset" />
          </mxGeometry>
        </mxCell>
        <mxCell id="5XVgzPO-QSHydqZ4kXn2-53" value="increaseGamesPlayed" style="outlineConnect=0;dashed=0;verticalLabelPosition=bottom;verticalAlign=top;align=center;html=1;shape=mxgraph.aws3.api_gateway;fillColor=#D9A741;gradientColor=none;" vertex="1" parent="1">
          <mxGeometry x="50" y="1020" width="76.5" height="93" as="geometry" />
        </mxCell>
        <mxCell id="5XVgzPO-QSHydqZ4kXn2-54" style="edgeStyle=orthogonalEdgeStyle;rounded=0;orthogonalLoop=1;jettySize=auto;html=1;" edge="1" parent="1" source="5XVgzPO-QSHydqZ4kXn2-56" target="5XVgzPO-QSHydqZ4kXn2-48">
          <mxGeometry relative="1" as="geometry" />
        </mxCell>
        <mxCell id="5XVgzPO-QSHydqZ4kXn2-55" value="PATCH" style="edgeLabel;html=1;align=center;verticalAlign=middle;resizable=0;points=[];" vertex="1" connectable="0" parent="5XVgzPO-QSHydqZ4kXn2-54">
          <mxGeometry x="-0.2681" y="-4" relative="1" as="geometry">
            <mxPoint as="offset" />
          </mxGeometry>
        </mxCell>
        <mxCell id="5XVgzPO-QSHydqZ4kXn2-56" value="UpdateUserDetails" style="outlineConnect=0;dashed=0;verticalLabelPosition=bottom;verticalAlign=top;align=center;html=1;shape=mxgraph.aws3.api_gateway;fillColor=#D9A741;gradientColor=none;" vertex="1" parent="1">
          <mxGeometry x="50" y="1300" width="76.5" height="93" as="geometry" />
        </mxCell>
      </root>
    </mxGraphModel>
  </diagram>
</mxfile>
